<?xml version="1.0" encoding="UTF-8"?>
<!DOCTYPE svg PUBLIC "-//W3C//DTD SVG 1.1//EN" "http://www.w3.org/Graphics/SVG/1.1/DTD/svg11.dtd">
<!-- Creator: CorelDRAW 2019 (64-Bit) -->
<svg xmlns="http://www.w3.org/2000/svg" xml:space="preserve" width="41.969mm" height="33.827mm" version="1.1" shape-rendering="geometricPrecision" text-rendering="geometricPrecision" image-rendering="optimizeQuality" fill-rule="evenodd" clip-rule="evenodd"
viewBox="0 0 41.969 33.827"
 xmlns:xlink="http://www.w3.org/1999/xlink"
 xmlns:xodm="http://www.corel.com/coreldraw/odm/2003">
 <defs>
   <linearGradient id="id0" gradientUnits="userSpaceOnUse" x1="7.8974" y1="16.9291" x2="41.7774" y2="16.9291">
    <stop offset="0" stop-opacity="1" stop-color="#16ACE1"/>
    <stop offset="1" stop-opacity="1" stop-color="#9713E2"/>
   </linearGradient>
   <linearGradient id="id1" gradientUnits="userSpaceOnUse" x1="14.8974" y1="27.5691" x2="7.8974" y2="33.1691">
    <stop offset="0" stop-opacity="1" stop-color="#16ACE1"/>
    <stop offset="1" stop-opacity="1" stop-color="#9713E2"/>
   </linearGradient>
 </defs>
 <g id="Слой_x0020_1">
  <metadata id="CorelCorpID_0Corel-Layer"/>
  <path fill="url(#id0)" fill-rule="nonzero" d="M25.0426 0.0199c-9.3433,0 -16.9134,7.5732 -16.9134,16.9134 0,2.851 0.7039,5.5359 1.9513,7.8938 0.2464,-1.5414 0.677,-3.2726 0.9206,-4.0359 0.401,-1.2533 2.863,-7.1456 3.0918,-7.677 0.2288,-0.5376 0.8702,-1.7702 1.5593,-1.5117 0.6832,0.2554 0.3979,0.7781 0.0414,1.8444 -0.3534,1.069 -0.9741,3.549 -1.1197,4.0062 -0.1456,0.4603 -0.1218,0.7454 0.1366,0.8344 0.2584,0.089 0.5345,-0.3741 0.6891,-0.7039 0.1484,-0.3296 2.3195,-5.518 2.5066,-6.0169 0.1901,-0.4959 0.6208,-1.6215 1.5086,-1.2888 0.891,0.3357 0.4396,1.2205 0.2881,1.6156 -0.1484,0.392 -1.265,3.4362 -1.6097,4.3033 -0.3385,0.8672 -1.1287,2.2453 -0.8019,2.4352 0.3268,0.1929 0.6236,-0.4931 0.8316,-0.8495 0.2139,-0.3564 2.6788,-4.7012 2.9638,-5.1825 0.285,-0.4841 0.9741,-1.8354 1.9037,-1.2443 0.9296,0.588 0.1308,1.7702 -0.1604,2.266 -0.2909,0.502 -2.6104,4.6598 -2.8778,5.1111 -0.2643,0.4486 -0.5345,1.087 -0.1781,1.3364 0.3534,0.2495 3.4569,-4.1401 3.9827,-4.8972 0.5317,-0.7543 1.1166,-1.5414 1.8413,-1.1374 0.7246,0.4068 0.2377,1.4196 -0.2436,2.1622 -0.4782,0.7426 -4.2498,7.1246 -4.6953,7.8464 -0.4424,0.7216 -0.0476,1.8978 1.5028,0.8613 1.5473,-1.0335 3.9976,-1.4997 4.4192,-0.579 0.4248,0.9148 -1.185,1.3068 -2.1708,1.776 -0.9859,0.4634 -2.0076,1.7046 -3.1214,2.3906 -1.1136,0.6832 -3.341,1.4672 -4.5172,1.8768 -0.2167,0.0742 -0.5107,0.3741 -0.8464,0.8137 2.6312,1.6839 5.7585,2.6639 9.1174,2.6639 9.3402,0 16.9134,-7.5732 16.9134,-16.9134 -0.0002,-9.34 -7.5733,-16.9132 -16.9136,-16.9132zm0 12.0663c-0.3296,0 -0.5939,-0.2674 -0.5939,-0.5939 0,-0.3296 0.2643,-0.5939 0.5939,-0.5939 3.3261,0 6.0348,2.7056 6.0348,6.0348 0,1.5266 -0.5704,2.9817 -1.6038,4.0984 -0.1187,0.1277 -0.2792,0.1929 -0.4365,0.1929 -0.1456,0 -0.2909,-0.0535 -0.404,-0.1604 -0.2405,-0.2226 -0.2554,-0.597 -0.0328,-0.8375 0.8316,-0.8999 1.2888,-2.067 1.2888,-3.2936 0.0003,-2.6726 -2.1736,-4.8468 -4.8465,-4.8468zm0 -7.3147c-0.3296,0 -0.5939,-0.2643 -0.5939,-0.5939 0,-0.3268 0.2643,-0.5939 0.5939,-0.5939 5.9427,0 11.2232,3.9886 12.8416,9.6995 0.0921,0.3147 -0.0921,0.6446 -0.4068,0.7336 -0.0566,0.0148 -0.1098,0.0238 -0.1632,0.0238 -0.2584,0 -0.4959,-0.1722 -0.5704,-0.4337 -1.4761,-5.2032 -6.2871,-8.8354 -11.7012,-8.8354zm10.8786 19.8982c-0.1159,0.1632 -0.2999,0.2495 -0.4841,0.2495 -0.1187,0 -0.2405,-0.0356 -0.3444,-0.1098 -0.2674,-0.1901 -0.3296,-0.5614 -0.1394,-0.8285 1.4731,-2.0642 2.2512,-4.5024 2.2512,-7.0476 0,-0.3268 0.2643,-0.5939 0.5939,-0.5939 0.3268,0 0.5939,0.2674 0.5939,0.5939 -0.0001,2.7944 -0.8555,5.4704 -2.4711,7.7364z"/>
  <path fill="url(#id1)" fill-rule="nonzero" d="M6.4971 25.5486l0 2.382 2.382 0 0 -2.382 -2.382 0zm3.255 1.0635l0 1.3185 0.9237 0c-0.3267,-0.4248 -0.6356,-0.8644 -0.9237,-1.3185zm-6.51 1.8947l0 2.382 2.382 0 0 -2.382 -2.382 0zm3.255 0l0 2.382 2.382 0 0 -2.382 -2.382 0zm4.6391 0l-1.3841 0 0 2.382 2.382 0 0 -1.2799c-0.3475,-0.3536 -0.6801,-0.7221 -0.9979,-1.1021zm1.8678 1.9303l0 0.4514 0.5256 0c-0.1781,-0.1456 -0.3531,-0.2968 -0.5256,-0.4514zm-13.0169 1.0276l0 2.382 2.382 0 0 -2.382 -2.382 0zm3.255 0l0 2.382 2.382 0 0 -2.382 -2.382 0zm3.255 0l0 2.382 2.382 0 0 -2.382 -2.382 0zm9.7619 1.2889l0 1.0928 2.3434 0c-0.8109,-0.3057 -1.5949,-0.6739 -2.3434,-1.0928zm-6.5069 -1.2889l0 2.382 2.382 0 0 -2.382 -2.382 0zm4.5142 0l-1.2623 0 0 2.382 2.382 0 0 -1.6125c-0.383,-0.2408 -0.7574,-0.4962 -1.1197,-0.7695z"/>
 </g>
 <g id="Слой_x0020_1_0">
  <metadata id="CorelCorpID_1Corel-Layer"/>
 </g>
</svg>
