<?xml version="1.0" encoding="UTF-8"?>
<!DOCTYPE svg PUBLIC "-//W3C//DTD SVG 1.1//EN" "http://www.w3.org/Graphics/SVG/1.1/DTD/svg11.dtd">
<!-- Creator: CorelDRAW 2019 (64-Bit) -->
<svg xmlns="http://www.w3.org/2000/svg" xml:space="preserve" width="35.469mm" height="33.138mm" version="1.1" shape-rendering="geometricPrecision" text-rendering="geometricPrecision" image-rendering="optimizeQuality" fill-rule="evenodd" clip-rule="evenodd"
viewBox="0 0 35.469 33.138"
 xmlns:xlink="http://www.w3.org/1999/xlink"
 xmlns:xodm="http://www.corel.com/coreldraw/odm/2003">
 <defs>
   <linearGradient id="id0" gradientUnits="userSpaceOnUse" x1="-0.1157" y1="16.3445" x2="35.3859" y2="16.3445">
    <stop offset="0" stop-opacity="1" stop-color="#16ACE1"/>
    <stop offset="1" stop-opacity="1" stop-color="#9713E2"/>
   </linearGradient>
   <linearGradient id="id1" gradientUnits="userSpaceOnUse" x1="30.9732" y1="16.4111" x2="7.289" y2="16.4111">
    <stop offset="0" stop-opacity="1" stop-color="#16ACE1"/>
    <stop offset="1" stop-opacity="1" stop-color="#9713E2"/>
   </linearGradient>
 </defs>
 <g id="Слой_x0020_1">
  <metadata id="CorelCorpID_0Corel-Layer"/>
  <path fill="url(#id0)" fill-rule="nonzero" d="M35.4139 16.711c-0.0944,-2.968 -0.6608,-6.0189 -2.1146,-8.7623 -0.7255,-1.3611 -1.6562,-2.6482 -2.8221,-3.6977 -1.1567,-1.0576 -2.49,-1.8992 -3.8951,-2.5516 -2.8504,-1.2258 -5.9128,-1.664 -8.8931,-1.6738 -2.9803,0.0098 -6.0427,0.448 -8.8931,1.6738 -1.405,0.6527 -2.7384,1.4941 -3.8951,2.5516 -1.1659,1.0494 -2.0966,2.3366 -2.8221,3.6977 -1.4538,2.7434 -2.0205,5.7943 -2.1146,8.7623 -0.0389,1.4904 0.0414,2.9733 0.2122,4.4405 0.1467,1.2558 0.3567,2.4816 0.6633,3.7206l0 4.2893c0,2.2103 1.792,4.0023 4.0023,4.0023 2.2103,0 4.0023,-1.792 4.0023,-4.0023l0 -6.8681c0,-2.2103 -1.792,-4.0023 -4.0023,-4.0023 -1.2589,0 -2.3806,0.5824 -3.1142,1.491 -0.035,-0.9985 -0.0244,-1.9961 0.0448,-2.9856 0.1806,-2.7751 0.805,-5.5222 2.1098,-7.8646 0.3181,-0.5897 0.7031,-1.1334 1.1046,-1.6596l0.642 -0.7557 0.7109 -0.6885c0.9878,-0.8761 2.1249,-1.5728 3.3412,-2.121 2.4716,-1.034 5.2304,-1.4498 8.0077,-1.4417 2.777,-0.0081 5.5362,0.4074 8.0077,1.4417 1.2163,0.5482 2.3534,1.2449 3.3412,2.121l0.7109 0.6885 0.642 0.7557c0.4012,0.5261 0.7862,1.0699 1.1046,1.6596 1.3051,2.3425 1.9292,5.0896 2.1098,7.8646 0.0692,0.9892 0.0798,1.9869 0.0448,2.9856 -0.7336,-0.9086 -1.8553,-1.491 -3.1142,-1.491 -2.2103,0 -4.0023,1.792 -4.0023,4.0023l0 6.8681c0,2.2103 1.792,4.0023 4.0023,4.0023 2.2103,0 4.0023,-1.792 4.0023,-4.0023l0 -4.2893c0.3066,-1.239 0.5166,-2.4648 0.6633,-3.7206 0.1713,-1.4674 0.2517,-2.95 0.2128,-4.4405z"/>
  <path fill="url(#id1)" fill-rule="nonzero" d="M3.8185 16.2621c0.6202,-0.079 1.7942,0.0081 2.3859,-0.3251 0.7364,-0.4147 0.7524,-1.8715 1.0142,-2.5567 0.453,-1.1855 1.6551,-1.888 2.8888,-1.2482 0.74,0.3839 0.9901,1.1183 1.262,1.8413 0.5936,1.5781 1.083,3.2054 1.7186,4.7659 0.4438,1.0892 0.8655,0.1747 1.206,-0.5292 0.875,-1.8102 2.1874,-6.4285 4.905,-5.3511 1.1894,0.4715 1.5985,2.114 2.1062,3.1797 0.66,1.3857 1.5061,-0.0213 2.1456,-0.7736 0.9674,-1.1379 2.4254,-2.4766 3.7397,-0.8271 0.2531,0.3178 0.3825,0.7263 0.6272,1.0492 0.6272,0.8266 1.9172,0.6065 2.8641,0.6751 0.1123,0.0081 1.3524,-0.0512 1.0195,0.3828 -0.1722,0.2243 -1.6741,0.1672 -1.9222,0.1837 -1.0814,0.0717 -1.9877,0.1901 -2.7418,-0.7263 -0.637,-0.7742 -1.164,-1.6887 -2.0381,-0.5608 -0.8588,1.1077 -1.6736,3.0282 -3.3586,2.8325 -1.3919,-0.1616 -1.8528,-1.5568 -2.4041,-2.6272 -0.226,-0.4388 -0.534,-1.5145 -1.162,-0.9509 -0.2282,0.205 -0.4004,0.8716 -0.5225,1.1348 -0.4712,1.0158 -0.9537,2.0269 -1.4311,3.04 -0.2402,0.5102 -0.4511,1.1166 -0.7977,1.5602 -0.7955,1.0186 -2.3229,1.1676 -3.2934,0.3044 -1.045,-0.929 -1.3521,-3.1618 -1.7298,-4.3932 -0.2268,-0.7398 -0.4029,-1.5218 -0.6737,-2.2467 -0.572,-1.5322 -1.3157,0.0641 -1.6705,0.8739 -0.3942,0.9005 -0.7865,1.759 -1.9057,1.8262 -0.2862,0.0171 -0.5939,-0.0482 -0.8772,-0.077 -0.299,-0.0305 -0.6068,-0.0501 -0.9027,-0.0983 0.3454,0.0552 -1.1767,-0.2659 -0.4517,-0.3583z"/>
 </g>
 <g id="Слой_x0020_1_0">
  <metadata id="CorelCorpID_1Corel-Layer"/>
 </g>
</svg>
