<?xml version="1.0" encoding="UTF-8"?>
<!DOCTYPE svg PUBLIC "-//W3C//DTD SVG 1.1//EN" "http://www.w3.org/Graphics/SVG/1.1/DTD/svg11.dtd">
<!-- Creator: CorelDRAW 2019 (64-Bit) -->
<svg xmlns="http://www.w3.org/2000/svg" xml:space="preserve" width="34.158mm" height="30.881mm" version="1.1" shape-rendering="geometricPrecision" text-rendering="geometricPrecision" image-rendering="optimizeQuality" fill-rule="evenodd" clip-rule="evenodd"
viewBox="0 0 34.158 30.881"
 xmlns:xlink="http://www.w3.org/1999/xlink"
 xmlns:xodm="http://www.corel.com/coreldraw/odm/2003">
 <defs>
   <linearGradient id="id0" gradientUnits="userSpaceOnUse" x1="33.5139" y1="15.2901" x2="3.8339" y2="15.2901">
    <stop offset="0" stop-opacity="1" stop-color="#16ACE1"/>
    <stop offset="1" stop-opacity="1" stop-color="#9713E2"/>
   </linearGradient>
 </defs>
 <g id="Слой_x0020_1">
  <metadata id="CorelCorpID_0Corel-Layer"/>
  <path fill="url(#id0)" fill-rule="nonzero" d="M3.6049 30.9343l-3.6283 0 0 -3.6282 3.6283 -0.0001 0 3.6283zm4.3612 -3.6283l-3.6282 0 0 3.6282 3.6282 0.0001 0 -3.6283zm8.7226 0l-3.6282 0 0 3.6282 3.6282 0.0001 0 -3.6283zm4.3613 0l-3.6283 0 0 3.6282 3.6283 0.0001 0 -3.6283zm8.7225 0l-3.6282 0 0 3.6282 3.6282 0.0001 0 -3.6283zm4.3616 0l-3.6282 0 0 3.6282 3.6282 0.0001 0 -3.6283zm-26.168 0l-3.6282 0 0 3.6282 3.6282 0.0001 0 -3.6283zm-4.3612 -4.5421l-3.6283 0 0 3.6282 3.6283 0 0 -3.6282zm4.3612 0l-3.6282 0 0 3.6282 3.6282 0 0 -3.6282zm8.7226 0l-3.6282 0 0 3.6282 3.6282 0 0 -3.6282zm4.3613 0l-3.6283 0 0 3.6282 3.6283 0 0 -3.6282zm8.7225 0l-3.6282 0 0 3.6282 3.6282 0 0 -3.6282zm4.3616 0l-3.6282 0 0 3.6282 3.6282 0 0 -3.6282zm-26.168 0l-3.6282 0 0 3.6282 3.6282 0 0 -3.6282zm-4.3612 -4.5422l-3.6283 0 0 3.6285 3.6283 0 0 -3.6285zm4.3612 0l-3.6282 0 0 3.6285 3.6282 0 0 -3.6285zm8.7226 0l-3.6282 0 0 3.6285 3.6282 0 0 -3.6285zm4.3613 0l-3.6283 0 0 3.6285 3.6283 0 0 -3.6285zm8.7225 0l-3.6282 0 0 3.6285 3.6282 0 0 -3.6285zm4.3616 0l-3.6282 0 0 3.6285 3.6282 0 0 -3.6285zm-26.168 0l-3.6282 0 0 3.6285 3.6282 0 0 -3.6285zm-4.3612 -4.5419l-3.6283 0 0 3.6285 3.6283 0 0 -3.6285zm4.3612 0l-3.6282 0 0 3.6285 3.6282 0 0 -3.6285zm4.3613 0l-3.6282 0 0 3.6285 3.6282 0 0 -3.6285zm4.3613 0l-3.6282 0 0 3.6285 3.6282 0 0 -3.6285zm4.3613 0l-3.6283 0 0 3.6285 3.6283 0 0 -3.6285zm4.3613 0l-3.6283 0 0 3.6285 3.6283 0 0 -3.6285zm4.3612 0l-3.6282 0 0 3.6285 3.6282 0 0 -3.6285zm4.3616 0l-3.6282 0 0 3.6285 3.6282 0 0 -3.6285zm-26.168 0l-3.6282 0 0 3.6285 3.6282 0 0 -3.6285zm-4.3612 -4.5421l-3.6283 0 0 3.6285 3.6283 0 0 -3.6285zm0 -4.5419l-3.6283 0 0 3.6285 3.6283 0 0 -3.6285zm0 -4.5422l-3.6283 0 0 3.6285 3.6283 0 0 -3.6285zm4.3612 9.0841l-3.6282 0 0 3.6285 3.6282 0 0 -3.6285zm4.3613 0l-3.6282 0 0 3.6285 3.6282 0 0 -3.6285zm13.0839 0l-3.6283 0 0 3.6285 3.6283 0 0 -3.6285zm4.3612 0l-3.6282 0 0 3.6285 3.6282 0 0 -3.6285zm4.3616 0l-3.6282 0 0 3.6285 3.6282 0 0 -3.6285zm0 -4.5419l-3.6282 0 0 3.6285 3.6282 0 0 -3.6285zm0 -4.5422l-3.6282 0 0 3.6285 3.6282 0 0 -3.6285zm-26.168 9.0841l-3.6282 0 0 3.6285 3.6282 0 0 -3.6285zm0 -4.5419l-3.6282 0 0 3.6285 3.6282 0 0 -3.6285zm21.8064 0l-3.6282 0 0 3.6285 3.6282 0 0 -3.6285zm-21.8064 0l-3.6282 0 0 3.6285 3.6282 0 0 -3.6285z"/>
 </g>
 <g id="Слой_x0020_1_0">
  <metadata id="CorelCorpID_1Corel-Layer"/>
 </g>
</svg>
