<?xml version="1.0" encoding="UTF-8"?>
<svg xmlns="http://www.w3.org/2000/svg" xml:space="preserve" width="34.158mm" height="30.881mm" version="1.1" shape-rendering="geometricPrecision" text-rendering="geometricPrecision" image-rendering="optimizeQuality"
viewBox="0 0 34.158 30.881">
   <linearGradient id="id0" gradientUnits="userSpaceOnUse" x1="33.5139" y1="15.2901" x2="3.8339" y2="15.2901">
    <stop offset="0" stop-opacity="1" stop-color="#16ACE1"/>
    <stop offset="1" stop-opacity="1" stop-color="#9713E2"/>
   </linearGradient>
  <path fill="url(#id0)" fill-rule="nonzero" d="M3.6049 30.9343l-3.6283 0 0 -3.6282 3.6283 -0.0001 0 3.6283zm4.3612 -3.6283l-3.6282 0 0 3.6282 3.6282 0.0001 0 -3.6283zm8.7226 0l-3.6282 0 0 3.6282 3.6282 0.0001 0 -3.6283zm4.3613 0l-3.6283 0 0 3.6282 3.6283 0.0001 0 -3.6283zm8.7225 0l-3.6282 0 0 3.6282 3.6282 0.0001 0 -3.6283zm4.3616 0l-3.6282 0 0 3.6282 3.6282 0.0001 0 -3.6283zm-26.168 0l-3.6282 0 0 3.6282 3.6282 0.0001 0 -3.6283zm-4.3612 -4.5421l-3.6283 0 0 3.6282 3.6283 0 0 -3.6282zm4.3612 0l-3.6282 0 0 3.6282 3.6282 0 0 -3.6282zm8.7226 0l-3.6282 0 0 3.6282 3.6282 0 0 -3.6282zm4.3613 0l-3.6283 0 0 3.6282 3.6283 0 0 -3.6282zm8.7225 0l-3.6282 0 0 3.6282 3.6282 0 0 -3.6282zm4.3616 0l-3.6282 0 0 3.6282 3.6282 0 0 -3.6282zm-26.168 0l-3.6282 0 0 3.6282 3.6282 0 0 -3.6282zm-4.3612 -4.5422l-3.6283 0 0 3.6285 3.6283 0 0 -3.6285zm4.3612 0l-3.6282 0 0 3.6285 3.6282 0 0 -3.6285zm8.7226 0l-3.6282 0 0 3.6285 3.6282 0 0 -3.6285zm4.3613 0l-3.6283 0 0 3.6285 3.6283 0 0 -3.6285zm8.7225 0l-3.6282 0 0 3.6285 3.6282 0 0 -3.6285zm4.3616 0l-3.6282 0 0 3.6285 3.6282 0 0 -3.6285zm-26.168 0l-3.6282 0 0 3.6285 3.6282 0 0 -3.6285zm-4.3612 -4.5419l-3.6283 0 0 3.6285 3.6283 0 0 -3.6285zm4.3612 0l-3.6282 0 0 3.6285 3.6282 0 0 -3.6285zm4.3613 0l-3.6282 0 0 3.6285 3.6282 0 0 -3.6285zm4.3613 0l-3.6282 0 0 3.6285 3.6282 0 0 -3.6285zm4.3613 0l-3.6283 0 0 3.6285 3.6283 0 0 -3.6285zm4.3613 0l-3.6283 0 0 3.6285 3.6283 0 0 -3.6285zm4.3612 0l-3.6282 0 0 3.6285 3.6282 0 0 -3.6285zm4.3616 0l-3.6282 0 0 3.6285 3.6282 0 0 -3.6285zm-26.168 0l-3.6282 0 0 3.6285 3.6282 0 0 -3.6285zm-4.3612 -4.5421l-3.6283 0 0 3.6285 3.6283 0 0 -3.6285zm0 -4.5419l-3.6283 0 0 3.6285 3.6283 0 0 -3.6285zm0 -4.5422l-3.6283 0 0 3.6285 3.6283 0 0 -3.6285zm4.3612 9.0841l-3.6282 0 0 3.6285 3.6282 0 0 -3.6285zm4.3613 0l-3.6282 0 0 3.6285 3.6282 0 0 -3.6285zm13.0839 0l-3.6283 0 0 3.6285 3.6283 0 0 -3.6285zm4.3612 0l-3.6282 0 0 3.6285 3.6282 0 0 -3.6285zm4.3616 0l-3.6282 0 0 3.6285 3.6282 0 0 -3.6285zm0 -4.5419l-3.6282 0 0 3.6285 3.6282 0 0 -3.6285zm0 -4.5422l-3.6282 0 0 3.6285 3.6282 0 0 -3.6285zm-26.168 9.0841l-3.6282 0 0 3.6285 3.6282 0 0 -3.6285zm0 -4.5419l-3.6282 0 0 3.6285 3.6282 0 0 -3.6285zm21.8064 0l-3.6282 0 0 3.6285 3.6282 0 0 -3.6285zm-21.8064 0l-3.6282 0 0 3.6285 3.6282 0 0 -3.6285z"/>
</svg>
