<?xml version="1.0" encoding="UTF-8"?>
<!DOCTYPE svg PUBLIC "-//W3C//DTD SVG 1.1//EN" "http://www.w3.org/Graphics/SVG/1.1/DTD/svg11.dtd">
<!-- Creator: CorelDRAW 2019 (64-Bit) -->
<svg xmlns="http://www.w3.org/2000/svg" xml:space="preserve" width="48.314mm" height="37.04mm" version="1.1" shape-rendering="geometricPrecision" text-rendering="geometricPrecision" image-rendering="optimizeQuality" fill-rule="evenodd" clip-rule="evenodd"
viewBox="0 0 48.314 37.04"
 xmlns:xlink="http://www.w3.org/1999/xlink"
 xmlns:xodm="http://www.corel.com/coreldraw/odm/2003">
 <defs>
   <linearGradient id="id0" gradientUnits="userSpaceOnUse" x1="-0.1321" y1="21.7083" x2="48.2239" y2="21.7083">
    <stop offset="0" stop-opacity="1" stop-color="#16ACE1"/>
    <stop offset="1" stop-opacity="1" stop-color="#9713E2"/>
   </linearGradient>
   <linearGradient id="id1" gradientUnits="userSpaceOnUse" x1="20.7838" y1="15.8283" x2="33.6638" y2="15.8283">
    <stop offset="0" stop-opacity="1" stop-color="#16ACE1"/>
    <stop offset="1" stop-opacity="1" stop-color="#9713E2"/>
   </linearGradient>
   <linearGradient id="id2" gradientUnits="userSpaceOnUse" x1="28.9038" y1="12.7668" x2="46.5438" y2="12.7668">
    <stop offset="0" stop-opacity="1" stop-color="#16ACE1"/>
    <stop offset="1" stop-opacity="1" stop-color="#9713E2"/>
   </linearGradient>
 </defs>
 <g id="Слой_x0020_1">
  <metadata id="CorelCorpID_0Corel-Layer"/>
  <path fill="url(#id0)" fill-rule="nonzero" d="M38.2018 8.5536l0 0c0,0.2803 0.1694,0.5286 0.4256,0.6423 4.8642,2.1591 8.2564,7.0473 8.2292,12.7086 -0.035,7.2814 -5.8184,13.3605 -13.0903,13.7393 -8.7444,0.4556 -15.8558,-7.2621 -14.3634,-16.1815 1.1203,-6.6956 6.902,-11.482 13.6909,-11.452 0.2447,0.0011 0.4878,0.0084 0.7291,0.0224 0.4012,0.0232 0.7389,-0.2934 0.7389,-0.6952l0 0c0,-0.3707 -0.289,-0.6779 -0.6591,-0.6994 -0.2397,-0.014 -0.4808,-0.0221 -0.7241,-0.0252 -0.014,0 -0.0252,-0.0028 -0.0364,-0.0028l-30.8056 0c-1.2312,0 -2.3075,0.9274 -2.389,2.1557 -0.0893,1.3476 0.9817,2.4724 2.3103,2.4724l13.5467 0.0001c0.4348,0 0.8305,0.294 0.9181,0.7199 0.1207,0.5874 -0.3259,1.1085 -0.8929,1.1085l-7.8932 0c-1.2312,0 -2.3075,0.9274 -2.389,2.1557 -0.0893,1.3476 0.9817,2.4724 2.3103,2.4724l5.9867 0c0.4348,0 0.8305,0.294 0.9181,0.7199 0.1207,0.5874 -0.3259,1.1085 -0.8929,1.1085l-3.1332 0c-1.2312,0 -2.3075,0.9274 -2.389,2.1557 -0.0893,1.3476 0.9817,2.4724 2.3103,2.4724l6.8174 0c0.4413,0 0.8462,0.2985 0.9296,0.7319 0.112,0.5832 -0.3321,1.0937 -0.8954,1.0937l-12.3699 0c-1.2331,0 -2.3108,0.929 -2.392,2.1594 -0.0888,1.3474 0.982,2.469 2.3106,2.469l10.7438 0c0.4365,0 0.8336,0.2954 0.9209,0.7232 0.1201,0.588 -0.3262,1.1052 -0.8932,1.1052l-7.8881 0c-1.2309,0 -2.3089,0.9248 -2.3937,2.1526 -0.0932,1.3471 0.9792,2.4758 2.31,2.4758l25.284 0c0.0112,0 0.0224,-0.0028 0.0364,-0.0028 8.3272,-0.0812 15.078,-6.8768 15.078,-15.2236 0,-6.2017 -3.7285,-11.5478 -9.0614,-13.9188 -0.4665,-0.2064 -0.9931,0.126 -0.9931,0.6367z"/>
  <path fill="url(#id1)" fill-rule="nonzero" d="M21.537 22.5371c-0.3867,0 -0.7,-0.3133 -0.7,-0.7 0,-3.4026 1.4375,-6.6755 3.9444,-8.9796 0.2848,-0.2618 0.7272,-0.2433 0.9892,0.0417 0.2615,0.2845 0.243,0.7274 -0.0417,0.989 -2.219,2.0395 -3.4919,4.937 -3.4919,7.9489 0,0.3867 -0.3136,0.7 -0.7,0.7zm6.6685 -10.3578c1.5053,-0.7532 3.1284,-1.1354 4.8244,-1.1354 0.3867,0 0.7,-0.3133 0.7,-0.7 0,-0.3867 -0.3133,-0.7 -0.7,-0.7 -1.9155,0 -3.7498,0.4318 -5.4513,1.2835 -0.3455,0.1728 -0.4855,0.5933 -0.3128,0.9391 0.1226,0.245 0.3699,0.387 0.6266,0.387 0.1056,0.0003 0.2126,-0.0238 0.3131,-0.0742z"/>
  <path fill="url(#id2)" fill-rule="nonzero" d="M46.1958 3.9952l-9.548 -3.92c-0.2156,-0.0896 -0.462,-0.0644 -0.6552,0.0644 -0.1932,0.1316 -0.3108,0.35 -0.3108,0.5824l0 18.0572c-0.7112,-0.616 -1.638,-0.994 -2.6516,-0.994 -2.2344,0 -4.0516,1.8172 -4.0516,4.0516 0,2.2344 1.8172,4.0516 4.0516,4.0516 2.2344,0 4.0516,-1.8172 4.0516,-4.0516l0 -15.9572 8.582 3.5252c0.2156,0.0868 0.462,0.0644 0.6552,-0.0672 0.196,-0.1288 0.3108,-0.3472 0.3108,-0.5796l0 -4.116c0,-0.2828 -0.1708,-0.5404 -0.434,-0.6468zm-13.1656 20.4932c-1.4616,0 -2.6516,-1.19 -2.6516,-2.6516 0,-1.4616 1.19,-2.6516 2.6516,-2.6516 1.4616,0 2.6516,1.19 2.6516,2.6516 0,1.4616 -1.19,2.6516 -2.6516,2.6516z"/>
 </g>
 <g id="Слой_x0020_1_0">
  <metadata id="CorelCorpID_1Corel-Layer"/>
 </g>
</svg>
