<?xml version="1.0" encoding="UTF-8"?>
<svg xmlns="http://www.w3.org/2000/svg" xml:space="preserve" width="39.623mm" height="34.199mm" version="1.1" shape-rendering="geometricPrecision" text-rendering="geometricPrecision" image-rendering="optimizeQuality" fill-rule="evenodd" clip-rule="evenodd"
viewBox="0 0 39.623 34.199">
   <linearGradient id="id0" gradientUnits="userSpaceOnUse" x1="-0.0248" y1="16.8599" x2="39.4552" y2="16.8599">
    <stop offset="0" stop-opacity="1" stop-color="#16ACE1"/>
    <stop offset="1" stop-opacity="1" stop-color="#9713E2"/>
   </linearGradient>
  <path fill="url(#id0)" fill-rule="nonzero" d="M33.3616 0.0034l-27.1012 0c-4.9532,0 -6.2608,4.0964 -6.2608,6.2608l0 23.0468c0,1.1676 0.8792,2.1896 2.044,2.268 1.2796,0.0868 2.3464,-0.9296 2.3464,-2.1896l0 -0.8232c0,-0.3556 0.2548,-0.6832 0.6104,-0.7196 0.4088,-0.0392 0.756,0.28 0.756,0.6804l0 3.402c0,1.1676 0.8792,2.1896 2.044,2.268 1.2768,0.084 2.3436,-0.9324 2.3436,-2.1924l0 -5.1184c0,-0.3556 0.2576,-0.6832 0.6132,-0.7196 0.4088,-0.0392 0.7532,0.28 0.7532,0.6804l0 0.8736c0,1.1676 0.8792,2.1896 2.044,2.268 1.2796,0.0868 2.3464,-0.9296 2.3464,-2.1896l0 -0.3528c0,-0.3556 0.2576,-0.6832 0.6104,-0.7196 0.4088,-0.0392 0.756,0.28 0.756,0.6804l0 1.904c0,1.1676 0.8792,2.1896 2.044,2.268 1.2768,0.0868 2.3464,-0.9296 2.3464,-2.1896l0 -2.1952c0,-0.6188 0.5012,-1.12 1.12,-1.12l10.584 0c4.9504,0 6.2608,-4.0936 6.2608,-6.2608l0 -13.5492c0,-4.9532 -4.0964,-6.2608 -6.2608,-6.2608zm-26.586 24.3908l-0.5124 0c-0.4704,-0.0028 -4.5836,-0.1568 -4.5836,-4.5808l0 -12.7092 3.7408 0 0 8.6464c0,0.9128 0.56,1.6968 1.3552,2.0272l0 6.6164zm8.1284 0l-6.4484 0 0 -6.6164c0.7952,-0.3304 1.3552,-1.1144 1.3552,-2.0272l0 -8.6464 3.738 0 0 8.6464c0,0.9128 0.5628,1.6968 1.3552,2.0272l0 6.6164zm8.1312 0l-6.4512 0 0 -6.6164c0.7952,-0.3304 1.3552,-1.1144 1.3552,-2.0272l0 -8.6464 5.096 0 0 17.29zm8.1312 0l-6.4512 0 0 -17.29 5.096 0 0 8.6464c0,0.9128 0.56,1.6968 1.3552,2.0272l0 6.6164zm6.776 -4.5808c0,0.1876 -0.0532,4.5808 -4.5808,4.5808l-0.5152 0 0 -6.6164c0.7952,-0.3304 1.3552,-1.1144 1.3552,-2.0272l0 -8.6464 3.7408 0 0 12.7092z"/>
</svg>
