<?xml version="1.0" encoding="UTF-8"?>
<svg xmlns="http://www.w3.org/2000/svg" xml:space="preserve" width="42.834mm" height="30.1mm" version="1.1" shape-rendering="geometricPrecision" text-rendering="geometricPrecision" image-rendering="optimizeQuality"
viewBox="0 0 42.834 30.1">
   <linearGradient id="id0" gradientUnits="userSpaceOnUse" x1="12.7568" y1="29.8207" x2="23.6578" y2="10.931">
    <stop offset="0" stop-opacity="1" stop-color="#16ACE1"/>
    <stop offset="1" stop-opacity="1" stop-color="#9713E2"/>
   </linearGradient>
  <metadata/>
  <path fill="url(#id0)" fill-rule="nonzero" d="M36.9783 15.7141c-0.1473,0.3419 -0.4138,0.6303 -0.7557,0.8028l-26.2797 13.4252c-0.2321,0.1193 -0.4861,0.1786 -0.7431,0.1786 -0.2948,0 -0.5925,-0.0815 -0.8529,-0.2414 -0.4796,-0.2979 -0.7776,-0.8215 -0.7776,-1.3888l0 -12.5474c1.1788,-0.1504 1.624,-1.1256 2.0003,-2.1384 0.1002,-0.2727 0.4766,-0.3136 0.6303,-0.0627 1.4202,2.273 2.7871,4.615 4.377,6.769 0.7745,1.0472 2.1916,1.4171 3.2763,0.5611 0.4735,-0.373 0.6835,-0.9122 0.9374,-1.4358 0.5174,-1.0755 1.0346,-2.154 1.5551,-3.2292 0.3511,-0.7336 0.7053,-1.4641 1.0564,-2.1977 0.2164,-0.4514 0.8434,-0.4922 1.1161,-0.0689 0.8151,1.2824 1.6335,2.5648 2.4769,3.8282 0.9906,1.4767 2.3262,1.2415 3.6056,0.373 1.0534,-0.7179 2.0818,-1.4829 3.1508,-2.1759 0.765,-0.4953 1.9281,-0.3105 2.8311,-0.348 0.8,-0.0345 1.5994,-0.0693 2.3957,-0.1037zm-25.2232 -3.7968c1.6114,2.2134 3.1321,4.496 4.6623,6.7659 1.041,-2.1036 2.0692,-4.2168 3.129,-6.3146 0.4326,-0.8529 0.859,-1.6492 1.9001,-1.8374 1.1662,-0.2131 1.9124,0.4953 2.4738,1.4078 1.022,1.671 2.0096,3.3673 3.0005,5.0604 0.812,-0.4984 1.6271,-0.9906 2.4424,-1.4798 0.74,-0.4452 1.6335,-1.1945 2.4956,-1.3168 0.9719,-0.1347 2.0975,0.0532 3.0758,0.0941 0.6773,0.0283 1.3544,0.0596 2.0317,0.091 -0.1504,-0.3293 -0.4077,-0.6051 -0.7431,-0.7745l-26.2797 -13.4159c-0.5079,-0.257 -1.1099,-0.2321 -1.5957,0.0627 -0.4796,0.2979 -0.7776,0.8215 -0.7776,1.3922l0 11.8042c0.1036,-0.4295 0.1974,-0.8842 0.3576,-1.2886 0.7296,-1.8529 2.7896,-1.6773 3.8273,-0.2507zm30.9859 3.3891c-0.1851,0.2383 -3.2388,0.2853 -4.242,0.3354 -0.5048,0.0252 -1.0128,0.0501 -1.5207,0.0722 0.0879,-0.2008 0.135,-0.42 0.135,-0.649 0,-0.2383 -0.0501,-0.467 -0.1473,-0.6773 1.8497,0.0879 3.6996,0.1851 5.5462,0.3041 0.3229,0.0221 0.4013,0.392 0.2288,0.6146zm-35.1714 -1.8497l0 2.4864c-0.0722,0.0095 -0.1473,0.0157 -0.2257,0.0188 -1.0878,0.0409 -7.114,-0.1285 -7.327,-0.74 -0.3262,-0.9374 3.339,-0.8434 3.9441,-0.8842 0.9218,-0.0596 1.8404,-0.1159 2.7622,-0.1725 0.4074,-0.025 0.7493,-0.3103 0.8464,-0.7085z"/>
</svg>
